<svg width="25" height="24" viewBox="0 0 25 24" fill="none" xmlns="http://www.w3.org/2000/svg">
<path d="M5.89136 9.20641L5.8914 9.20645L5.9 9.2L11.9 4.7L11.9 4.70002L11.906 4.69543C12.0777 4.56468 12.2636 4.5 12.5 4.5C12.7364 4.5 12.9223 4.56468 13.094 4.69543L13.0939 4.69545L13.1 4.7L19.1 9.2L19.1 9.20005L19.1086 9.20641C19.2276 9.29368 19.3209 9.40277 19.3931 9.54721C19.4653 9.69174 19.5 9.83863 19.5 10V19C19.5 19.2827 19.411 19.4998 19.2054 19.7054C18.9998 19.911 18.7827 20 18.5 20H15.5V15C15.5 14.4648 15.3081 13.9689 14.9196 13.5804C14.5311 13.1919 14.0352 13 13.5 13H11.5C10.9648 13 10.4689 13.1919 10.0804 13.5804C9.69193 13.9689 9.5 14.4648 9.5 15V20H6.5C6.21732 20 6.00023 19.911 5.79461 19.7054C5.58898 19.4998 5.5 19.2827 5.5 19V10C5.5 9.83863 5.53466 9.69174 5.60693 9.54721C5.67915 9.40277 5.77235 9.29368 5.89136 9.20641Z" stroke="white" stroke-width="2"/>
</svg>
