<svg width="124" height="65" viewBox="0 0 124 65" fill="none" xmlns="http://www.w3.org/2000/svg">
<g filter="url(#filter0_ddd_245_268)">
<path d="M53.5434 34.4138C51.6801 34.4138 50.0637 33.9848 48.6944 33.1268C47.3251 32.2601 46.2634 31.0728 45.5094 29.5648C44.7641 28.0568 44.3914 26.3365 44.3914 24.4038C44.3914 22.4711 44.7641 20.7508 45.5094 19.2428C46.2634 17.7348 47.3251 16.5518 48.6944 15.6938C50.0637 14.8271 51.6801 14.3938 53.5434 14.3938C54.3754 14.3938 55.1511 14.5411 55.8704 14.8358C56.5984 15.1218 57.2354 15.5248 57.7814 16.0448L59.7444 14.6538H59.9394V20.2178H59.7184C59.5277 19.1345 59.1464 18.1811 58.5744 17.3578C58.0111 16.5258 57.3134 15.8758 56.4814 15.4078C55.6581 14.9398 54.7654 14.7058 53.8034 14.7058C52.7721 14.7058 51.9011 14.9875 51.1904 15.5508C50.4884 16.1055 49.9251 16.8508 49.5004 17.7868C49.0844 18.7141 48.7811 19.7541 48.5904 20.9068C48.4084 22.0508 48.3174 23.2165 48.3174 24.4038C48.3174 25.5825 48.4084 26.7481 48.5904 27.9008C48.7811 29.0535 49.0844 30.0978 49.5004 31.0338C49.9251 31.9611 50.4884 32.7065 51.1904 33.2698C51.9011 33.8245 52.7721 34.1018 53.8034 34.1018C54.6787 34.1018 55.4674 33.9588 56.1694 33.6728C56.8801 33.3868 57.4954 32.9881 58.0154 32.4768C58.5441 31.9655 58.9731 31.3805 59.3024 30.7218C59.6317 30.0545 59.8571 29.3438 59.9784 28.5898H60.1994V34.1538H60.0044L58.2104 32.6458C57.6471 33.1918 56.9667 33.6251 56.1694 33.9458C55.3807 34.2578 54.5054 34.4138 53.5434 34.4138ZM61.9549 34.1538V33.9458H64.8149V14.8618H61.9549V14.6538H71.3409V14.8618H68.2209V33.9458H71.3409V34.1538H61.9549ZM76.2661 34.1538V33.9458H79.1261V14.8618H77.0981C76.3701 14.8618 75.7505 15.0135 75.2391 15.3168C74.7365 15.6115 74.3205 16.0275 73.9911 16.5648C73.6618 17.1021 73.4061 17.7261 73.2241 18.4368C73.0508 19.1475 72.9338 19.9145 72.8731 20.7378H72.6521V14.6538H89.0191V20.7378H88.7981C88.7375 19.9145 88.6161 19.1475 88.4341 18.4368C88.2608 17.7261 88.0051 17.1021 87.6671 16.5648C87.3378 16.0275 86.9175 15.6115 86.4061 15.3168C85.9035 15.0135 85.2881 14.8618 84.5601 14.8618H82.5321V33.9458H85.3921V34.1538H76.2661ZM95.4798 34.1538V33.9458H97.8198V24.7938L91.9568 14.8618H90.1368V14.6538H98.6128V14.8618H95.9088L101.096 23.9878L105.919 14.8618H102.994V14.6538H108.415V14.8618H106.179L101.226 24.2218V33.9458H103.839V34.1538H95.4798Z" fill="white"/>
<mask id="path-2-inside-1_245_268" fill="white">
<path d="M53.5434 34.4138C51.6801 34.4138 50.0637 33.9848 48.6944 33.1268C47.3251 32.2601 46.2634 31.0728 45.5094 29.5648C44.7641 28.0568 44.3914 26.3365 44.3914 24.4038C44.3914 22.4711 44.7641 20.7508 45.5094 19.2428C46.2634 17.7348 47.3251 16.5518 48.6944 15.6938C50.0637 14.8271 51.6801 14.3938 53.5434 14.3938C54.3754 14.3938 55.1511 14.5411 55.8704 14.8358C56.5984 15.1218 57.2354 15.5248 57.7814 16.0448L59.7444 14.6538H59.9394V20.2178H59.7184C59.5277 19.1345 59.1464 18.1811 58.5744 17.3578C58.0111 16.5258 57.3134 15.8758 56.4814 15.4078C55.6581 14.9398 54.7654 14.7058 53.8034 14.7058C52.7721 14.7058 51.9011 14.9875 51.1904 15.5508C50.4884 16.1055 49.9251 16.8508 49.5004 17.7868C49.0844 18.7141 48.7811 19.7541 48.5904 20.9068C48.4084 22.0508 48.3174 23.2165 48.3174 24.4038C48.3174 25.5825 48.4084 26.7481 48.5904 27.9008C48.7811 29.0535 49.0844 30.0978 49.5004 31.0338C49.9251 31.9611 50.4884 32.7065 51.1904 33.2698C51.9011 33.8245 52.7721 34.1018 53.8034 34.1018C54.6787 34.1018 55.4674 33.9588 56.1694 33.6728C56.8801 33.3868 57.4954 32.9881 58.0154 32.4768C58.5441 31.9655 58.9731 31.3805 59.3024 30.7218C59.6317 30.0545 59.8571 29.3438 59.9784 28.5898H60.1994V34.1538H60.0044L58.2104 32.6458C57.6471 33.1918 56.9667 33.6251 56.1694 33.9458C55.3807 34.2578 54.5054 34.4138 53.5434 34.4138ZM61.9549 34.1538V33.9458H64.8149V14.8618H61.9549V14.6538H71.3409V14.8618H68.2209V33.9458H71.3409V34.1538H61.9549ZM76.2661 34.1538V33.9458H79.1261V14.8618H77.0981C76.3701 14.8618 75.7505 15.0135 75.2391 15.3168C74.7365 15.6115 74.3205 16.0275 73.9911 16.5648C73.6618 17.1021 73.4061 17.7261 73.2241 18.4368C73.0508 19.1475 72.9338 19.9145 72.8731 20.7378H72.6521V14.6538H89.0191V20.7378H88.7981C88.7375 19.9145 88.6161 19.1475 88.4341 18.4368C88.2608 17.7261 88.0051 17.1021 87.6671 16.5648C87.3378 16.0275 86.9175 15.6115 86.4061 15.3168C85.9035 15.0135 85.2881 14.8618 84.5601 14.8618H82.5321V33.9458H85.3921V34.1538H76.2661ZM95.4798 34.1538V33.9458H97.8198V24.7938L91.9568 14.8618H90.1368V14.6538H98.6128V14.8618H95.9088L101.096 23.9878L105.919 14.8618H102.994V14.6538H108.415V14.8618H106.179L101.226 24.2218V33.9458H103.839V34.1538H95.4798Z"/>
</mask>
<path d="M48.6944 33.1268L48.1596 33.9718L48.1634 33.9742L48.6944 33.1268ZM45.5094 29.5648L44.6129 30.0079L44.615 30.012L45.5094 29.5648ZM45.5094 19.2428L44.615 18.7956L44.6129 18.7997L45.5094 19.2428ZM48.6944 15.6938L49.2254 16.5412L49.2292 16.5388L48.6944 15.6938ZM55.8704 14.8358L55.4913 15.7612L55.498 15.7639L55.5047 15.7666L55.8704 14.8358ZM57.7814 16.0448L57.0917 16.7689L57.6879 17.3367L58.3596 16.8607L57.7814 16.0448ZM59.7444 14.6538V13.6538H59.426L59.1662 13.8379L59.7444 14.6538ZM59.9394 14.6538H60.9394V13.6538H59.9394V14.6538ZM59.9394 20.2178V21.2178H60.9394V20.2178H59.9394ZM59.7184 20.2178L58.7335 20.3911L58.879 21.2178H59.7184V20.2178ZM58.5744 17.3578L57.7463 17.9185L57.7531 17.9284L58.5744 17.3578ZM56.4814 15.4078L55.9872 16.2772L55.9911 16.2794L56.4814 15.4078ZM51.1904 15.5508L51.8104 16.3354L51.8116 16.3345L51.1904 15.5508ZM49.5004 17.7868L48.5897 17.3736L48.588 17.3775L49.5004 17.7868ZM48.5904 20.9068L47.6038 20.7436L47.6028 20.7497L48.5904 20.9068ZM48.5904 27.9008L47.6026 28.0568L47.6038 28.064L48.5904 27.9008ZM49.5004 31.0338L48.5865 31.44L48.5912 31.4502L49.5004 31.0338ZM51.1904 33.2698L50.5645 34.0498L50.5751 34.0581L51.1904 33.2698ZM56.1694 33.6728L55.7961 32.7451L55.7921 32.7467L56.1694 33.6728ZM58.0154 32.4768L57.3201 31.758L57.3143 31.7638L58.0154 32.4768ZM59.3024 30.7218L60.1968 31.169L60.1991 31.1644L59.3024 30.7218ZM59.9784 28.5898V27.5898H59.1265L58.9911 28.4309L59.9784 28.5898ZM60.1994 28.5898H61.1994V27.5898H60.1994V28.5898ZM60.1994 34.1538V35.1538H61.1994V34.1538H60.1994ZM60.0044 34.1538L59.3609 34.9193L59.6399 35.1538H60.0044V34.1538ZM58.2104 32.6458L58.8538 31.8803L58.1627 31.2994L57.5144 31.9277L58.2104 32.6458ZM56.1694 33.9458L56.5373 34.8757L56.5425 34.8736L56.1694 33.9458ZM53.5434 33.4138C51.8385 33.4138 50.4124 33.0232 49.2254 32.2794L48.1634 33.9742C49.7151 34.9464 51.5216 35.4138 53.5434 35.4138V33.4138ZM49.2292 32.2818C48.0201 31.5166 47.0798 30.4696 46.4038 29.1176L44.615 30.012C45.447 31.676 46.63 33.0037 48.1596 33.9718L49.2292 32.2818ZM46.4059 29.1217C45.7381 27.7707 45.3914 26.2057 45.3914 24.4038H43.3914C43.3914 26.4672 43.79 28.3429 44.6129 30.0079L46.4059 29.1217ZM45.3914 24.4038C45.3914 22.6019 45.7381 21.0369 46.4059 19.6859L44.6129 18.7997C43.79 20.4647 43.3914 22.3404 43.3914 24.4038H45.3914ZM46.4038 19.69C47.0794 18.3388 48.0185 17.2974 49.2254 16.5412L48.1634 14.8464C46.6316 15.8062 45.4474 17.1308 44.615 18.7956L46.4038 19.69ZM49.2292 16.5388C50.4157 15.7879 51.8404 15.3938 53.5434 15.3938V13.3938C51.5197 13.3938 49.7118 13.8664 48.1596 14.8488L49.2292 16.5388ZM53.5434 15.3938C54.2546 15.3938 54.9006 15.5192 55.4913 15.7612L56.2495 13.9104C55.4016 13.5631 54.4962 13.3938 53.5434 13.3938V15.3938ZM55.5047 15.7666C56.117 16.0071 56.6429 16.3414 57.0917 16.7689L58.4711 15.3207C57.8279 14.7082 57.0798 14.2365 56.236 13.9051L55.5047 15.7666ZM58.3596 16.8607L60.3226 15.4697L59.1662 13.8379L57.2032 15.2289L58.3596 16.8607ZM59.7444 15.6538H59.9394V13.6538H59.7444V15.6538ZM58.9394 14.6538V20.2178H60.9394V14.6538H58.9394ZM59.9394 19.2178H59.7184V21.2178H59.9394V19.2178ZM60.7033 20.0445C60.4899 18.8325 60.0581 17.7407 59.3957 16.7873L57.7531 17.9284C58.2347 18.6215 58.5655 19.4365 58.7335 20.3911L60.7033 20.0445ZM59.4024 16.7971C58.7568 15.8437 57.946 15.0843 56.9717 14.5362L55.9911 16.2794C56.6808 16.6673 57.2653 17.208 57.7463 17.9185L59.4024 16.7971ZM56.9756 14.5384C55.9991 13.9834 54.9358 13.7058 53.8034 13.7058V15.7058C54.595 15.7058 55.317 15.8962 55.9872 16.2772L56.9756 14.5384ZM53.8034 13.7058C52.5791 13.7058 51.4806 14.0447 50.5692 14.7671L51.8116 16.3345C52.3216 15.9302 52.965 15.7058 53.8034 15.7058V13.7058ZM50.5704 14.7662C49.7258 15.4335 49.0704 16.3141 48.5897 17.3736L50.411 18.2C50.7797 17.3875 51.251 16.7774 51.8104 16.3354L50.5704 14.7662ZM48.588 17.3775C48.132 18.394 47.8065 19.5184 47.6038 20.7436L49.577 21.07C49.7557 19.9898 50.0368 19.0343 50.4128 18.1961L48.588 17.3775ZM47.6028 20.7497C47.4123 21.9469 47.3174 23.1652 47.3174 24.4038H49.3174C49.3174 23.2678 49.4044 22.1547 49.578 21.0639L47.6028 20.7497ZM47.3174 24.4038C47.3174 25.6342 47.4124 26.852 47.6026 28.0568L49.5782 27.7448C49.4044 26.6443 49.3174 25.5308 49.3174 24.4038H47.3174ZM47.6038 28.064C47.8064 29.2889 48.1317 30.4164 48.5866 31.4399L50.4142 30.6277C50.0371 29.7792 49.7557 28.818 49.577 27.7376L47.6038 28.064ZM48.5912 31.4502C49.072 32.5001 49.7258 33.3766 50.5645 34.0497L51.8163 32.4899C51.251 32.0363 50.7781 31.4222 50.4096 30.6174L48.5912 31.4502ZM50.5751 34.0581C51.4864 34.7693 52.5828 35.1018 53.8034 35.1018V33.1018C52.9613 33.1018 52.3158 32.8796 51.8057 32.4815L50.5751 34.0581ZM53.8034 35.1018C54.7883 35.1018 55.7078 34.9407 56.5467 34.5989L55.7921 32.7467C55.227 32.977 54.5692 33.1018 53.8034 33.1018V35.1018ZM56.5427 34.6005C57.3695 34.2678 58.0978 33.7983 58.7165 33.1898L57.3143 31.7638C56.893 32.178 56.3906 32.5058 55.7961 32.7451L56.5427 34.6005ZM58.7106 33.1956C59.3207 32.6056 59.817 31.9287 60.1968 31.169L58.408 30.2746C58.1291 30.8323 57.7675 31.3254 57.3202 31.758L58.7106 33.1956ZM60.1991 31.1644C60.5738 30.4052 60.8289 29.5986 60.9657 28.7487L58.9911 28.4309C58.8852 29.089 58.6897 29.7038 58.4057 30.2793L60.1991 31.1644ZM59.9784 29.5898H60.1994V27.5898H59.9784V29.5898ZM59.1994 28.5898V34.1538H61.1994V28.5898H59.1994ZM60.1994 33.1538H60.0044V35.1538H60.1994V33.1538ZM60.6478 33.3883L58.8538 31.8803L57.5669 33.4113L59.3609 34.9193L60.6478 33.3883ZM57.5144 31.9277C57.0526 32.3753 56.4849 32.7411 55.7963 33.018L56.5425 34.8736C57.4485 34.5092 58.2415 34.0083 58.9064 33.3639L57.5144 31.9277ZM55.8015 33.0159C55.1446 33.2758 54.3962 33.4138 53.5434 33.4138V35.4138C54.6146 35.4138 55.6168 35.2398 56.5373 34.8757L55.8015 33.0159ZM61.9549 34.1538H60.9549V35.1538H61.9549V34.1538ZM61.9549 33.9458V32.9458H60.9549V33.9458H61.9549ZM64.8149 33.9458V34.9458H65.8149V33.9458H64.8149ZM64.8149 14.8618H65.8149V13.8618H64.8149V14.8618ZM61.9549 14.8618H60.9549V15.8618H61.9549V14.8618ZM61.9549 14.6538V13.6538H60.9549V14.6538H61.9549ZM71.3409 14.6538H72.3409V13.6538H71.3409V14.6538ZM71.3409 14.8618V15.8618H72.3409V14.8618H71.3409ZM68.2209 14.8618V13.8618H67.2209V14.8618H68.2209ZM68.2209 33.9458H67.2209V34.9458H68.2209V33.9458ZM71.3409 33.9458H72.3409V32.9458H71.3409V33.9458ZM71.3409 34.1538V35.1538H72.3409V34.1538H71.3409ZM62.9549 34.1538V33.9458H60.9549V34.1538H62.9549ZM61.9549 34.9458H64.8149V32.9458H61.9549V34.9458ZM65.8149 33.9458V14.8618H63.8149V33.9458H65.8149ZM64.8149 13.8618H61.9549V15.8618H64.8149V13.8618ZM62.9549 14.8618V14.6538H60.9549V14.8618H62.9549ZM61.9549 15.6538H71.3409V13.6538H61.9549V15.6538ZM70.3409 14.6538V14.8618H72.3409V14.6538H70.3409ZM71.3409 13.8618H68.2209V15.8618H71.3409V13.8618ZM67.2209 14.8618V33.9458H69.2209V14.8618H67.2209ZM68.2209 34.9458H71.3409V32.9458H68.2209V34.9458ZM70.3409 33.9458V34.1538H72.3409V33.9458H70.3409ZM71.3409 33.1538H61.9549V35.1538H71.3409V33.1538ZM76.2661 34.1538H75.2661V35.1538H76.2661V34.1538ZM76.2661 33.9458V32.9458H75.2661V33.9458H76.2661ZM79.1261 33.9458V34.9458H80.1261V33.9458H79.1261ZM79.1261 14.8618H80.1261V13.8618H79.1261V14.8618ZM75.2391 15.3168L75.7449 16.1795L75.7493 16.1769L75.2391 15.3168ZM73.9911 16.5648L73.1385 16.0422L73.9911 16.5648ZM73.2241 18.4368L72.2553 18.1887L72.2526 18.1999L73.2241 18.4368ZM72.8731 20.7378V21.7378H73.8022L73.8704 20.8113L72.8731 20.7378ZM72.6521 20.7378H71.6521V21.7378H72.6521V20.7378ZM72.6521 14.6538V13.6538H71.6521V14.6538H72.6521ZM89.0191 14.6538H90.0191V13.6538H89.0191V14.6538ZM89.0191 20.7378V21.7378H90.0191V20.7378H89.0191ZM88.7981 20.7378L87.8008 20.8113L87.8691 21.7378H88.7981V20.7378ZM88.4341 18.4368L87.4626 18.6738L87.4654 18.6849L88.4341 18.4368ZM87.6671 16.5648L86.8145 17.0874L86.8207 17.0973L87.6671 16.5648ZM86.4061 15.3168L85.8895 16.173L85.8981 16.1782L85.9068 16.1832L86.4061 15.3168ZM82.5321 14.8618V13.8618H81.5321V14.8618H82.5321ZM82.5321 33.9458H81.5321V34.9458H82.5321V33.9458ZM85.3921 33.9458H86.3921V32.9458H85.3921V33.9458ZM85.3921 34.1538V35.1538H86.3921V34.1538H85.3921ZM77.2661 34.1538V33.9458H75.2661V34.1538H77.2661ZM76.2661 34.9458H79.1261V32.9458H76.2661V34.9458ZM80.1261 33.9458V14.8618H78.1261V33.9458H80.1261ZM79.1261 13.8618H77.0981V15.8618H79.1261V13.8618ZM77.0981 13.8618C76.2308 13.8618 75.4259 14.0433 74.7289 14.4568L75.7493 16.1769C76.075 15.9837 76.5095 15.8618 77.0981 15.8618V13.8618ZM74.7334 14.4541C74.0775 14.8386 73.5466 15.3765 73.1385 16.0422L74.8437 17.0874C75.0944 16.6785 75.3954 16.3843 75.7449 16.1795L74.7334 14.4541ZM73.1385 16.0422C72.7493 16.6774 72.4582 17.3968 72.2554 18.1887L74.1929 18.6849C74.3541 18.0555 74.5744 17.5269 74.8437 17.0874L73.1385 16.0422ZM72.2526 18.1999C72.0646 18.9705 71.9401 19.7928 71.8758 20.6643L73.8704 20.8113C73.9275 20.0362 74.037 19.3244 74.1957 18.6738L72.2526 18.1999ZM72.8731 19.7378H72.6521V21.7378H72.8731V19.7378ZM73.6521 20.7378V14.6538H71.6521V20.7378H73.6521ZM72.6521 15.6538H89.0191V13.6538H72.6521V15.6538ZM88.0191 14.6538V20.7378H90.0191V14.6538H88.0191ZM89.0191 19.7378H88.7981V21.7378H89.0191V19.7378ZM89.7954 20.6643C89.731 19.7893 89.6012 18.9632 89.4029 18.1887L87.4654 18.6849C87.6311 19.3317 87.744 20.0397 87.8008 20.8113L89.7954 20.6643ZM89.4057 18.1998C89.2106 17.4002 88.9169 16.6735 88.5136 16.0324L86.8207 17.0973C87.0934 17.5308 87.311 18.0521 87.4626 18.6738L89.4057 18.1998ZM88.5197 16.0422C88.1093 15.3726 87.5712 14.834 86.9054 14.4504L85.9068 16.1832C86.2638 16.3889 86.5663 16.6824 86.8145 17.0874L88.5197 16.0422ZM86.9228 14.4606C86.2308 14.043 85.4268 13.8618 84.5601 13.8618V15.8618C85.1495 15.8618 85.5762 15.9839 85.8895 16.173L86.9228 14.4606ZM84.5601 13.8618H82.5321V15.8618H84.5601V13.8618ZM81.5321 14.8618V33.9458H83.5321V14.8618H81.5321ZM82.5321 34.9458H85.3921V32.9458H82.5321V34.9458ZM84.3921 33.9458V34.1538H86.3921V33.9458H84.3921ZM85.3921 33.1538H76.2661V35.1538H85.3921V33.1538ZM95.4798 34.1538H94.4798V35.1538H95.4798V34.1538ZM95.4798 33.9458V32.9458H94.4798V33.9458H95.4798ZM97.8198 33.9458V34.9458H98.8198V33.9458H97.8198ZM97.8198 24.7938H98.8198V24.5207L98.681 24.2855L97.8198 24.7938ZM91.9568 14.8618L92.818 14.3535L92.5277 13.8618H91.9568V14.8618ZM90.1368 14.8618H89.1368V15.8618H90.1368V14.8618ZM90.1368 14.6538V13.6538H89.1368V14.6538H90.1368ZM98.6128 14.6538H99.6128V13.6538H98.6128V14.6538ZM98.6128 14.8618V15.8618H99.6128V14.8618H98.6128ZM95.9088 14.8618V13.8618H94.1902L95.0394 15.3559L95.9088 14.8618ZM101.096 23.9878L100.226 24.4819L101.128 26.0676L101.98 24.4551L101.096 23.9878ZM105.919 14.8618L106.803 15.3291L107.578 13.8618H105.919V14.8618ZM102.994 14.8618H101.994V15.8618H102.994V14.8618ZM102.994 14.6538V13.6538H101.994V14.6538H102.994ZM108.415 14.6538H109.415V13.6538H108.415V14.6538ZM108.415 14.8618V15.8618H109.415V14.8618H108.415ZM106.179 14.8618V13.8618H105.577L105.295 14.3941L106.179 14.8618ZM101.226 24.2218L100.342 23.7541L100.226 23.9735V24.2218H101.226ZM101.226 33.9458H100.226V34.9458H101.226V33.9458ZM103.839 33.9458H104.839V32.9458H103.839V33.9458ZM103.839 34.1538V35.1538H104.839V34.1538H103.839ZM96.4798 34.1538V33.9458H94.4798V34.1538H96.4798ZM95.4798 34.9458H97.8198V32.9458H95.4798V34.9458ZM98.8198 33.9458V24.7938H96.8198V33.9458H98.8198ZM98.681 24.2855L92.818 14.3535L91.0957 15.3702L96.9587 25.3022L98.681 24.2855ZM91.9568 13.8618H90.1368V15.8618H91.9568V13.8618ZM91.1368 14.8618V14.6538H89.1368V14.8618H91.1368ZM90.1368 15.6538H98.6128V13.6538H90.1368V15.6538ZM97.6128 14.6538V14.8618H99.6128V14.6538H97.6128ZM98.6128 13.8618H95.9088V15.8618H98.6128V13.8618ZM95.0394 15.3559L100.226 24.4819L101.965 23.4937L96.7782 14.3677L95.0394 15.3559ZM101.98 24.4551L106.803 15.3291L105.035 14.3946L100.212 23.5206L101.98 24.4551ZM105.919 13.8618H102.994V15.8618H105.919V13.8618ZM103.994 14.8618V14.6538H101.994V14.8618H103.994ZM102.994 15.6538H108.415V13.6538H102.994V15.6538ZM107.415 14.6538V14.8618H109.415V14.6538H107.415ZM108.415 13.8618H106.179V15.8618H108.415V13.8618ZM105.295 14.3941L100.342 23.7541L102.11 24.6895L107.063 15.3295L105.295 14.3941ZM100.226 24.2218V33.9458H102.226V24.2218H100.226ZM101.226 34.9458H103.839V32.9458H101.226V34.9458ZM102.839 33.9458V34.1538H104.839V33.9458H102.839ZM103.839 33.1538H95.4798V35.1538H103.839V33.1538Z" fill="white" mask="url(#path-2-inside-1_245_268)"/>
<g style="mix-blend-mode:lighten">
<path d="M9.17901 35V15.764H5.67901V12.32H17.271V15.764H13.827V35H9.17901ZM20.2328 35V12.32H24.8248V35H20.2328ZM27.6622 35L32.1422 22.876L27.8302 12.32H32.1982L34.8862 18.844L37.1542 12.32H41.0462L36.9022 23.94L41.4382 35H37.1262L34.1582 27.86L31.5542 35H27.6622Z" fill="url(#paint0_linear_245_268)"/>
</g>
<g style="mix-blend-mode:luminosity" filter="url(#filter1_d_245_268)">
<mask id="path-5-outside-2_245_268" maskUnits="userSpaceOnUse" x="4" y="11" width="39" height="25" fill="black">
<rect fill="white" x="4" y="11" width="39" height="25"/>
<path d="M9.17901 35V15.764H5.67901V12.32H17.271V15.764H13.827V35H9.17901ZM20.2328 35V12.32H24.8248V35H20.2328ZM27.6622 35L32.1422 22.876L27.8302 12.32H32.1982L34.8862 18.844L37.1542 12.32H41.0462L36.9022 23.94L41.4382 35H37.1262L34.1582 27.86L31.5542 35H27.6622Z"/>
</mask>
<path d="M9.17901 35H8.17901V36H9.17901V35ZM9.17901 15.764H10.179V14.764H9.17901V15.764ZM5.67901 15.764H4.67901V16.764H5.67901V15.764ZM5.67901 12.32V11.32H4.67901V12.32H5.67901ZM17.271 12.32H18.271V11.32H17.271V12.32ZM17.271 15.764V16.764H18.271V15.764H17.271ZM13.827 15.764V14.764H12.827V15.764H13.827ZM13.827 35V36H14.827V35H13.827ZM10.179 35V15.764H8.17901V35H10.179ZM9.17901 14.764H5.67901V16.764H9.17901V14.764ZM6.67901 15.764V12.32H4.67901V15.764H6.67901ZM5.67901 13.32H17.271V11.32H5.67901V13.32ZM16.271 12.32V15.764H18.271V12.32H16.271ZM17.271 14.764H13.827V16.764H17.271V14.764ZM12.827 15.764V35H14.827V15.764H12.827ZM13.827 34H9.17901V36H13.827V34ZM20.2328 35H19.2328V36H20.2328V35ZM20.2328 12.32V11.32H19.2328V12.32H20.2328ZM24.8248 12.32H25.8248V11.32H24.8248V12.32ZM24.8248 35V36H25.8248V35H24.8248ZM21.2328 35V12.32H19.2328V35H21.2328ZM20.2328 13.32H24.8248V11.32H20.2328V13.32ZM23.8248 12.32V35H25.8248V12.32H23.8248ZM24.8248 34H20.2328V36H24.8248V34ZM27.6622 35L26.7242 34.6534L26.2266 36H27.6622V35ZM32.1422 22.876L33.0803 23.2226L33.215 22.8578L33.068 22.4978L32.1422 22.876ZM27.8302 12.32V11.32H26.3415L26.9045 12.6982L27.8302 12.32ZM32.1982 12.32L33.1228 11.939L32.8678 11.32H32.1982V12.32ZM34.8862 18.844L33.9616 19.2249L34.9655 21.6614L35.8308 19.1724L34.8862 18.844ZM37.1542 12.32V11.32H36.4432L36.2097 11.9916L37.1542 12.32ZM41.0462 12.32L41.9881 12.6559L42.4646 11.32H41.0462V12.32ZM36.9022 23.94L35.9603 23.6041L35.8317 23.965L35.977 24.3195L36.9022 23.94ZM41.4382 35V36H42.9292L42.3635 34.6205L41.4382 35ZM37.1262 35L36.2028 35.3838L36.459 36H37.1262V35ZM34.1582 27.86L35.0816 27.4762L34.0974 25.1083L33.2188 27.5174L34.1582 27.86ZM31.5542 35V36H32.254L32.4937 35.3426L31.5542 35ZM28.6003 35.3466L33.0803 23.2226L31.2042 22.5294L26.7242 34.6534L28.6003 35.3466ZM33.068 22.4978L28.756 11.9418L26.9045 12.6982L31.2165 23.2542L33.068 22.4978ZM27.8302 13.32H32.1982V11.32H27.8302V13.32ZM31.2736 12.7009L33.9616 19.2249L35.8108 18.4631L33.1228 11.939L31.2736 12.7009ZM35.8308 19.1724L38.0988 12.6484L36.2097 11.9916L33.9417 18.5156L35.8308 19.1724ZM37.1542 13.32H41.0462V11.32H37.1542V13.32ZM40.1043 11.9841L35.9603 23.6041L37.8441 24.2759L41.9881 12.6559L40.1043 11.9841ZM35.977 24.3195L40.513 35.3795L42.3635 34.6205L37.8275 23.5605L35.977 24.3195ZM41.4382 34H37.1262V36H41.4382V34ZM38.0496 34.6162L35.0816 27.4762L33.2348 28.2438L36.2028 35.3838L38.0496 34.6162ZM33.2188 27.5174L30.6148 34.6574L32.4937 35.3426L35.0977 28.2026L33.2188 27.5174ZM31.5542 34H27.6622V36H31.5542V34Z" fill="url(#paint1_linear_245_268)" mask="url(#path-5-outside-2_245_268)"/>
<path d="M9.17901 35H8.17901V36H9.17901V35ZM9.17901 15.764H10.179V14.764H9.17901V15.764ZM5.67901 15.764H4.67901V16.764H5.67901V15.764ZM5.67901 12.32V11.32H4.67901V12.32H5.67901ZM17.271 12.32H18.271V11.32H17.271V12.32ZM17.271 15.764V16.764H18.271V15.764H17.271ZM13.827 15.764V14.764H12.827V15.764H13.827ZM13.827 35V36H14.827V35H13.827ZM10.179 35V15.764H8.17901V35H10.179ZM9.17901 14.764H5.67901V16.764H9.17901V14.764ZM6.67901 15.764V12.32H4.67901V15.764H6.67901ZM5.67901 13.32H17.271V11.32H5.67901V13.32ZM16.271 12.32V15.764H18.271V12.32H16.271ZM17.271 14.764H13.827V16.764H17.271V14.764ZM12.827 15.764V35H14.827V15.764H12.827ZM13.827 34H9.17901V36H13.827V34ZM20.2328 35H19.2328V36H20.2328V35ZM20.2328 12.32V11.32H19.2328V12.32H20.2328ZM24.8248 12.32H25.8248V11.32H24.8248V12.32ZM24.8248 35V36H25.8248V35H24.8248ZM21.2328 35V12.32H19.2328V35H21.2328ZM20.2328 13.32H24.8248V11.32H20.2328V13.32ZM23.8248 12.32V35H25.8248V12.32H23.8248ZM24.8248 34H20.2328V36H24.8248V34ZM27.6622 35L26.7242 34.6534L26.2266 36H27.6622V35ZM32.1422 22.876L33.0803 23.2226L33.215 22.8578L33.068 22.4978L32.1422 22.876ZM27.8302 12.32V11.32H26.3415L26.9045 12.6982L27.8302 12.32ZM32.1982 12.32L33.1228 11.939L32.8678 11.32H32.1982V12.32ZM34.8862 18.844L33.9616 19.2249L34.9655 21.6614L35.8308 19.1724L34.8862 18.844ZM37.1542 12.32V11.32H36.4432L36.2097 11.9916L37.1542 12.32ZM41.0462 12.32L41.9881 12.6559L42.4646 11.32H41.0462V12.32ZM36.9022 23.94L35.9603 23.6041L35.8317 23.965L35.977 24.3195L36.9022 23.94ZM41.4382 35V36H42.9292L42.3635 34.6205L41.4382 35ZM37.1262 35L36.2028 35.3838L36.459 36H37.1262V35ZM34.1582 27.86L35.0816 27.4762L34.0974 25.1083L33.2188 27.5174L34.1582 27.86ZM31.5542 35V36H32.254L32.4937 35.3426L31.5542 35ZM28.6003 35.3466L33.0803 23.2226L31.2042 22.5294L26.7242 34.6534L28.6003 35.3466ZM33.068 22.4978L28.756 11.9418L26.9045 12.6982L31.2165 23.2542L33.068 22.4978ZM27.8302 13.32H32.1982V11.32H27.8302V13.32ZM31.2736 12.7009L33.9616 19.2249L35.8108 18.4631L33.1228 11.939L31.2736 12.7009ZM35.8308 19.1724L38.0988 12.6484L36.2097 11.9916L33.9417 18.5156L35.8308 19.1724ZM37.1542 13.32H41.0462V11.32H37.1542V13.32ZM40.1043 11.9841L35.9603 23.6041L37.8441 24.2759L41.9881 12.6559L40.1043 11.9841ZM35.977 24.3195L40.513 35.3795L42.3635 34.6205L37.8275 23.5605L35.977 24.3195ZM41.4382 34H37.1262V36H41.4382V34ZM38.0496 34.6162L35.0816 27.4762L33.2348 28.2438L36.2028 35.3838L38.0496 34.6162ZM33.2188 27.5174L30.6148 34.6574L32.4937 35.3426L35.0977 28.2026L33.2188 27.5174ZM31.5542 34H27.6622V36H31.5542V34Z" fill="url(#paint2_linear_245_268)" fill-opacity="0.56" style="mix-blend-mode:plus-darker" mask="url(#path-5-outside-2_245_268)"/>
</g>
<path d="M31.3968 49.7983C31.3642 49.7658 31.348 49.717 31.348 49.6519C31.348 49.5607 31.3642 49.5151 31.3968 49.5151C31.4619 49.5151 31.5465 49.5054 31.6507 49.4858C31.7549 49.4663 31.8558 49.4403 31.9534 49.4077C32.0511 49.3752 32.1195 49.3394 32.1585 49.3003C32.2692 49.1831 32.3278 48.8999 32.3343 48.4507C32.3473 47.6955 32.3603 47.0184 32.3734 46.4194C32.3929 45.814 32.4092 45.3192 32.4222 44.9351C32.4352 44.5444 32.4417 44.2938 32.4417 44.1831C32.4417 44.0073 32.4287 43.8771 32.4027 43.7925C32.3896 43.7534 32.331 43.7209 32.2269 43.6948C32.1292 43.6623 32.0218 43.6362 31.9046 43.6167C31.7874 43.5972 31.6963 43.5874 31.6312 43.5874C31.6051 43.5874 31.5921 43.5418 31.5921 43.4507C31.5921 43.3791 31.6051 43.3302 31.6312 43.3042C31.7874 43.3107 31.9599 43.3205 32.1488 43.3335C32.3376 43.3465 32.5296 43.353 32.7249 43.353C32.8486 43.353 32.9821 43.3498 33.1253 43.3433C33.2751 43.3302 33.4411 43.3172 33.6234 43.3042C33.6754 43.4474 34.32 45.0783 35.557 48.1968C35.57 48.2098 35.583 48.2163 35.596 48.2163C35.6221 48.2163 35.6383 48.2033 35.6448 48.1772C35.9639 47.4285 36.2503 46.745 36.5042 46.1265C36.7581 45.508 36.9795 44.9578 37.1683 44.4761L37.5589 43.3042C37.7672 43.3172 37.9365 43.327 38.0667 43.3335C38.2034 43.34 38.3043 43.3433 38.3695 43.3433C38.5713 43.3433 38.7633 43.34 38.9456 43.3335C39.1279 43.327 39.3004 43.3172 39.4632 43.3042C39.4827 43.3628 39.4925 43.4116 39.4925 43.4507C39.4925 43.5418 39.4762 43.5874 39.4437 43.5874H39.4241C39.3525 43.5874 39.2581 43.6102 39.1409 43.6558C39.0238 43.6948 38.9359 43.7371 38.8773 43.7827C38.7991 43.8413 38.7601 44.0594 38.7601 44.437L38.848 48.4019C38.861 48.7795 38.9098 49.0789 38.9945 49.3003C39.014 49.3394 39.0661 49.3752 39.1507 49.4077C39.2353 49.4403 39.3265 49.4663 39.4241 49.4858C39.5283 49.5054 39.6032 49.5151 39.6488 49.5151C39.6748 49.5151 39.6878 49.5607 39.6878 49.6519C39.6878 49.6974 39.6813 49.7463 39.6683 49.7983C39.3428 49.7853 39.0823 49.7756 38.887 49.769C38.6982 49.756 38.5713 49.7495 38.5062 49.7495L37.3343 49.7983C37.3083 49.7723 37.2952 49.7202 37.2952 49.6421C37.2952 49.5575 37.3083 49.5151 37.3343 49.5151C37.3994 49.5151 37.4971 49.4989 37.6273 49.4663C37.764 49.4338 37.8616 49.4012 37.9202 49.3687C37.9984 49.3166 38.0374 49.1766 38.0374 48.9487V48.4312L37.9202 44.9937C37.9202 44.922 37.9105 44.8439 37.8909 44.7593C37.8779 44.6681 37.8616 44.59 37.8421 44.5249C37.8226 44.4533 37.7998 44.4175 37.7738 44.4175C37.7607 44.4175 37.7445 44.4403 37.7249 44.4858L35.6839 49.3687C35.5602 49.6486 35.4398 49.7886 35.3226 49.7886C35.3161 49.7886 35.2868 49.7821 35.2347 49.769L32.9984 44.0854C32.9788 45.0034 32.956 45.8237 32.93 46.5464C32.904 47.2625 32.8812 47.8387 32.8616 48.2749C32.8486 48.7111 32.8421 48.965 32.8421 49.0366C32.8421 49.1538 32.8616 49.2384 32.9007 49.2905C32.9267 49.3231 32.9918 49.3589 33.096 49.3979C33.2002 49.4305 33.3076 49.4598 33.4183 49.4858C33.5355 49.5054 33.6136 49.5151 33.6527 49.5151C33.6787 49.5151 33.6917 49.564 33.6917 49.6616C33.6917 49.7007 33.6852 49.7463 33.6722 49.7983C33.3467 49.7853 33.0895 49.7756 32.9007 49.769C32.7119 49.756 32.5915 49.7495 32.5394 49.7495L31.3968 49.7983ZM41.4314 48.8999C40.8195 48.2619 40.5135 47.4839 40.5135 46.5659C40.5135 46.1102 40.5948 45.6838 40.7576 45.2866C40.9204 44.883 41.1417 44.5314 41.4217 44.2319C41.7081 43.9259 42.0402 43.6883 42.4178 43.519C42.7954 43.3433 43.199 43.2554 43.6287 43.2554C44.0584 43.2554 44.462 43.3433 44.8396 43.519C45.2172 43.6883 45.5493 43.9259 45.8357 44.2319C46.1222 44.5314 46.3468 44.883 46.5096 45.2866C46.6723 45.6838 46.7537 46.1102 46.7537 46.5659C46.7537 47.4839 46.4477 48.2619 45.8357 48.8999C45.4191 49.3426 44.9471 49.6356 44.4197 49.7788C43.8924 49.9285 43.365 49.9285 42.8377 49.7788C42.3169 49.6356 41.8481 49.3426 41.4314 48.8999ZM43.785 49.4468C44.2016 49.4468 44.5662 49.3101 44.8787 49.0366C45.1912 48.7697 45.4191 48.4377 45.5623 48.0405C45.712 47.6369 45.7869 47.2072 45.7869 46.7515C45.7869 46.2371 45.7023 45.7456 45.533 45.2769C45.3637 44.8146 45.1001 44.4305 44.742 44.1245C44.3839 43.8185 43.964 43.6655 43.4822 43.6655C43.0721 43.6655 42.7172 43.7925 42.4178 44.0464C42.1183 44.2938 41.8872 44.6226 41.7244 45.0327C41.5616 45.4364 41.4803 45.8758 41.4803 46.3511C41.4803 46.8654 41.5649 47.3569 41.7342 47.8257C41.9034 48.2879 42.1671 48.6753 42.5252 48.9878C42.8833 49.2938 43.3032 49.4468 43.785 49.4468ZM49.6985 49.8667C49.5422 49.8667 49.3762 49.8537 49.2005 49.8276C49.0247 49.8081 48.8782 49.7853 48.761 49.7593C48.5201 49.7137 48.3443 49.6779 48.2337 49.6519C48.1295 49.6193 48.0318 49.5965 47.9407 49.5835C47.8561 49.1799 47.7942 48.8511 47.7551 48.5972C47.7161 48.3368 47.6965 48.1479 47.6965 48.0308C47.6965 47.9917 47.7486 47.9722 47.8528 47.9722C47.97 47.9722 48.0514 48.0015 48.0969 48.0601C48.3248 48.9976 48.8652 49.4663 49.718 49.4663C50.0436 49.4663 50.3202 49.3687 50.5481 49.1733C50.776 48.978 50.8899 48.7013 50.8899 48.3433C50.8899 48.2261 50.8639 48.0828 50.8118 47.9136C50.7662 47.7443 50.6588 47.5978 50.4895 47.4741C50.3593 47.3765 50.2519 47.3049 50.1672 47.2593C50.0826 47.2072 49.998 47.1616 49.9133 47.1226C49.8287 47.077 49.7213 47.0151 49.5911 46.937L49.2005 46.7026C48.9986 46.5789 48.7968 46.439 48.595 46.2827C48.3932 46.12 48.2239 45.9312 48.0872 45.7163C47.957 45.5015 47.8919 45.2573 47.8919 44.9839C47.8919 44.6388 47.9797 44.3394 48.1555 44.0854C48.3378 43.825 48.5722 43.6232 48.8587 43.48C49.1516 43.3368 49.4674 43.2651 49.8059 43.2651C49.9492 43.2651 50.0826 43.2749 50.2063 43.2944C50.3365 43.3075 50.4439 43.3237 50.5286 43.3433C50.7239 43.3888 50.8606 43.4246 50.9387 43.4507C51.0234 43.4767 51.1373 43.506 51.2805 43.5386C51.3587 43.8771 51.3977 44.3426 51.3977 44.9351C51.3977 44.9806 51.3652 45.0034 51.3001 45.0034C51.1373 45.0034 51.0527 44.9709 51.0462 44.9058C51.0136 44.7104 50.942 44.5184 50.8313 44.3296C50.7206 44.1408 50.5709 43.9845 50.3821 43.8608C50.1933 43.7306 49.9687 43.6655 49.7083 43.6655C49.4413 43.6655 49.233 43.7176 49.0833 43.8218C48.9335 43.9194 48.8261 44.0464 48.761 44.2026C48.7024 44.3524 48.6731 44.5119 48.6731 44.6812C48.6731 44.8439 48.7122 45.0067 48.7903 45.1694C48.8684 45.3322 48.9824 45.4689 49.1321 45.5796C49.3339 45.7293 49.5357 45.8693 49.7376 45.9995C49.9459 46.1297 50.1607 46.2632 50.3821 46.3999C50.5904 46.5301 50.7988 46.6766 51.0071 46.8394C51.2154 46.9956 51.388 47.1746 51.5247 47.3765C51.6679 47.5783 51.7395 47.8127 51.7395 48.0796C51.7395 48.4246 51.6451 48.7339 51.4563 49.0073C51.2675 49.2743 51.0169 49.4858 50.7044 49.6421C50.3984 49.7918 50.0631 49.8667 49.6985 49.8667ZM52.6335 49.7983C52.6075 49.7723 52.5945 49.7235 52.5945 49.6519C52.5945 49.5607 52.6075 49.5151 52.6335 49.5151C52.6921 49.5151 52.7703 49.5086 52.8679 49.4956C52.9656 49.4761 53.0567 49.45 53.1413 49.4175C53.226 49.3849 53.2748 49.3524 53.2878 49.3198C53.3139 49.2287 53.3301 49.1115 53.3367 48.9683C53.3497 48.825 53.3562 48.6525 53.3562 48.4507V44.6616C53.3562 44.4598 53.3497 44.2873 53.3367 44.144C53.3301 43.9943 53.3139 43.8771 53.2878 43.7925C53.2748 43.7534 53.226 43.7209 53.1413 43.6948C53.0567 43.6623 52.9656 43.6362 52.8679 43.6167C52.7703 43.5972 52.6921 43.5874 52.6335 43.5874C52.6075 43.5874 52.5945 43.5451 52.5945 43.4604C52.5945 43.3823 52.6075 43.3302 52.6335 43.3042C52.6921 43.3042 52.7898 43.3107 52.9265 43.3237C53.0697 43.3302 53.2227 43.34 53.3855 43.353C53.5482 43.3595 53.6882 43.3628 53.8054 43.3628C54.0137 43.3628 54.2221 43.3563 54.4304 43.3433C54.6387 43.3237 54.808 43.3107 54.9382 43.3042C54.9512 43.3302 54.9545 43.3856 54.948 43.4702C54.948 43.5483 54.9382 43.5874 54.9187 43.5874C54.8796 43.5874 54.8113 43.6004 54.7136 43.6265C54.616 43.646 54.5248 43.672 54.4402 43.7046C54.3555 43.7306 54.3067 43.7599 54.2937 43.7925C54.2351 44.0138 54.2058 44.3166 54.2058 44.7007V46.2925L54.2742 46.3511H54.3425C54.5508 46.3511 54.7397 46.2567 54.9089 46.0679C55.293 45.6447 55.6218 45.2671 55.8953 44.9351C56.1752 44.603 56.4063 44.3198 56.5886 44.0854C56.7449 43.8966 56.823 43.7729 56.823 43.7144C56.823 43.6037 56.6374 43.5483 56.2663 43.5483C56.2403 43.5483 56.2273 43.519 56.2273 43.4604C56.2273 43.4279 56.2273 43.4019 56.2273 43.3823C56.2338 43.3563 56.2403 43.3302 56.2468 43.3042C56.4356 43.3172 56.6244 43.3302 56.8132 43.3433C57.002 43.3563 57.1615 43.3628 57.2917 43.3628C57.4024 43.3628 57.5229 43.3595 57.6531 43.353C57.7898 43.34 57.9135 43.3302 58.0242 43.3237C58.1413 43.3107 58.226 43.3042 58.2781 43.3042C58.2911 43.3302 58.2943 43.3791 58.2878 43.4507C58.2878 43.5158 58.2781 43.5483 58.2585 43.5483C57.8679 43.5939 57.5684 43.7306 57.3601 43.9585L55.3972 46.2437C55.3451 46.3022 55.3679 46.3901 55.4656 46.5073L57.8191 49.0952C57.9493 49.2319 58.1153 49.3361 58.3171 49.4077C58.5189 49.4793 58.698 49.5151 58.8542 49.5151C58.8868 49.5151 58.9031 49.5737 58.9031 49.6909C58.9031 49.7235 58.8966 49.7593 58.8835 49.7983C58.558 49.7853 58.2943 49.7756 58.0925 49.769C57.8907 49.756 57.7507 49.7495 57.6726 49.7495C57.3992 49.7495 57.1518 49.756 56.9304 49.769C56.7156 49.7756 56.5235 49.7853 56.3542 49.7983C56.3282 49.7723 56.3152 49.717 56.3152 49.6323C56.3152 49.5542 56.3282 49.5151 56.3542 49.5151C56.4324 49.5151 56.5203 49.5021 56.6179 49.4761C56.7221 49.45 56.7742 49.411 56.7742 49.3589C56.7742 49.1506 56.0352 48.2879 54.5574 46.771C54.5313 46.745 54.4369 46.7319 54.2742 46.7319C54.2286 46.7319 54.2058 46.758 54.2058 46.8101V48.4116C54.2058 48.7892 54.2351 49.092 54.2937 49.3198C54.3067 49.3459 54.3555 49.3752 54.4402 49.4077C54.5248 49.4403 54.616 49.4663 54.7136 49.4858C54.8113 49.5054 54.8796 49.5151 54.9187 49.5151C54.9382 49.5151 54.948 49.5542 54.948 49.6323C54.9545 49.7104 54.9512 49.7658 54.9382 49.7983C54.6127 49.7853 54.3555 49.7756 54.1667 49.769C53.9779 49.756 53.8575 49.7495 53.8054 49.7495L52.6335 49.7983ZM60.0217 48.8999C59.4097 48.2619 59.1037 47.4839 59.1037 46.5659C59.1037 46.1102 59.1851 45.6838 59.3479 45.2866C59.5106 44.883 59.732 44.5314 60.0119 44.2319C60.2984 43.9259 60.6304 43.6883 61.008 43.519C61.3856 43.3433 61.7893 43.2554 62.219 43.2554C62.6486 43.2554 63.0523 43.3433 63.4299 43.519C63.8075 43.6883 64.1395 43.9259 64.426 44.2319C64.7124 44.5314 64.9371 44.883 65.0998 45.2866C65.2626 45.6838 65.344 46.1102 65.344 46.5659C65.344 47.4839 65.038 48.2619 64.426 48.8999C64.0093 49.3426 63.5373 49.6356 63.01 49.7788C62.4826 49.9285 61.9553 49.9285 61.4279 49.7788C60.9071 49.6356 60.4384 49.3426 60.0217 48.8999ZM62.3752 49.4468C62.7919 49.4468 63.1565 49.3101 63.469 49.0366C63.7815 48.7697 64.0093 48.4377 64.1525 48.0405C64.3023 47.6369 64.3772 47.2072 64.3772 46.7515C64.3772 46.2371 64.2925 45.7456 64.1233 45.2769C63.954 44.8146 63.6903 44.4305 63.3322 44.1245C62.9742 43.8185 62.5542 43.6655 62.0725 43.6655C61.6623 43.6655 61.3075 43.7925 61.008 44.0464C60.7085 44.2938 60.4774 44.6226 60.3147 45.0327C60.1519 45.4364 60.0705 45.8758 60.0705 46.3511C60.0705 46.8654 60.1552 47.3569 60.3244 47.8257C60.4937 48.2879 60.7574 48.6753 61.1154 48.9878C61.4735 49.2938 61.8934 49.4468 62.3752 49.4468ZM69.3532 49.8472C69.3141 49.8472 69.2848 49.8309 69.2653 49.7983L66.7262 44.7495C66.6351 44.5607 66.5407 44.3882 66.443 44.2319C66.3454 44.0757 66.251 43.9357 66.1598 43.812C66.1078 43.7469 66.0199 43.6948 65.8962 43.6558C65.7725 43.6102 65.6716 43.5874 65.5934 43.5874C65.5674 43.5874 65.5544 43.5451 65.5544 43.4604C65.5544 43.3823 65.5674 43.3302 65.5934 43.3042L66.8239 43.353L67.8493 43.3042C67.8623 43.3302 67.8656 43.3856 67.8591 43.4702C67.8591 43.5483 67.8493 43.5874 67.8298 43.5874C67.7256 43.5874 67.6182 43.6134 67.5075 43.6655C67.3968 43.7111 67.3415 43.7795 67.3415 43.8706C67.3415 44.0659 67.4164 44.3068 67.5661 44.5933L69.5876 48.5972C69.6071 48.6297 69.6332 48.6395 69.6657 48.6265C69.6983 48.6069 69.721 48.5809 69.7341 48.5483L70.5446 46.8589L69.5192 44.7495C69.4281 44.5607 69.3337 44.3882 69.236 44.2319C69.1384 44.0757 69.044 43.9357 68.9528 43.812C68.9007 43.7469 68.8128 43.6948 68.6891 43.6558C68.5654 43.6102 68.4645 43.5874 68.3864 43.5874C68.3604 43.5874 68.3473 43.5386 68.3473 43.4409C68.3473 43.3758 68.3604 43.3302 68.3864 43.3042L69.6169 43.353L70.6325 43.3042C70.6455 43.3302 70.6488 43.3856 70.6423 43.4702C70.6423 43.5483 70.6325 43.5874 70.613 43.5874C70.5088 43.5874 70.4014 43.6102 70.2907 43.6558C70.1865 43.7013 70.1345 43.7729 70.1345 43.8706C70.1345 43.9552 70.1507 44.0594 70.1833 44.1831C70.2223 44.3003 70.2809 44.437 70.3591 44.5933L71.0036 45.9116L71.6872 44.4761C71.7783 44.2873 71.8239 44.0985 71.8239 43.9097C71.8239 43.799 71.7523 43.7176 71.6091 43.6655C71.4723 43.6134 71.3519 43.5874 71.2477 43.5874C71.2217 43.5874 71.2087 43.5451 71.2087 43.4604C71.2087 43.3823 71.2217 43.3302 71.2477 43.3042C71.5082 43.3172 71.7197 43.3302 71.8825 43.3433C72.0518 43.3563 72.169 43.3595 72.2341 43.353L73.2497 43.3042C73.2627 43.3302 73.266 43.3856 73.2595 43.4702C73.2595 43.5483 73.2497 43.5874 73.2302 43.5874C73.1911 43.5874 73.126 43.6004 73.0348 43.6265C72.9437 43.646 72.8526 43.6785 72.7614 43.7241C72.6703 43.7632 72.6019 43.8088 72.5563 43.8608C72.4977 43.9325 72.4196 44.0529 72.322 44.2222C72.2308 44.3849 72.1201 44.5998 71.9899 44.8667L71.238 46.4097L72.3024 48.5972C72.335 48.6558 72.374 48.6395 72.4196 48.5483L74.1677 44.5347C74.2262 44.4045 74.2686 44.2873 74.2946 44.1831C74.3207 44.0789 74.3337 43.991 74.3337 43.9194C74.3337 43.8088 74.2653 43.7274 74.1286 43.6753C73.9984 43.6167 73.8812 43.5874 73.777 43.5874C73.751 43.5874 73.738 43.5451 73.738 43.4604C73.738 43.3823 73.751 43.3302 73.777 43.3042C74.0374 43.3172 74.249 43.3302 74.4118 43.3433C74.5811 43.3498 74.7015 43.353 74.7731 43.353C74.9619 43.353 75.1377 43.3465 75.3005 43.3335C75.4632 43.3205 75.6097 43.3107 75.7399 43.3042C75.7529 43.3563 75.7595 43.4051 75.7595 43.4507C75.7595 43.5418 75.7464 43.5874 75.7204 43.5874C75.6553 43.5874 75.5511 43.6134 75.4079 43.6655C75.2647 43.7111 75.1572 43.7762 75.0856 43.8608C74.9033 44.0822 74.7145 44.411 74.5192 44.8472L72.4489 49.5347C72.3578 49.743 72.2308 49.8472 72.068 49.8472C72.029 49.8472 71.9997 49.8309 71.9802 49.7983L70.7887 47.3569L69.7341 49.5347C69.6364 49.743 69.5095 49.8472 69.3532 49.8472Z" fill="#F9F9F9"/>
</g>
<defs>
<filter id="filter0_ddd_245_268" x="0.679199" y="7.31982" width="122.736" height="57.6836" filterUnits="userSpaceOnUse" color-interpolation-filters="sRGB">
<feFlood flood-opacity="0" result="BackgroundImageFix"/>
<feColorMatrix in="SourceAlpha" type="matrix" values="0 0 0 0 0 0 0 0 0 0 0 0 0 0 0 0 0 0 127 0" result="hardAlpha"/>
<feOffset dx="5" dy="5"/>
<feGaussianBlur stdDeviation="5"/>
<feComposite in2="hardAlpha" operator="out"/>
<feColorMatrix type="matrix" values="0 0 0 0 0 0 0 0 0 0 0 0 0 0 0 0 0 0 0.3 0"/>
<feBlend mode="normal" in2="BackgroundImageFix" result="effect1_dropShadow_245_268"/>
<feColorMatrix in="SourceAlpha" type="matrix" values="0 0 0 0 0 0 0 0 0 0 0 0 0 0 0 0 0 0 127 0" result="hardAlpha"/>
<feOffset dx="3" dy="3"/>
<feGaussianBlur stdDeviation="3"/>
<feComposite in2="hardAlpha" operator="out"/>
<feColorMatrix type="matrix" values="0 0 0 0 0 0 0 0 0 0 0 0 0 0 0 0 0 0 0.45 0"/>
<feBlend mode="normal" in2="effect1_dropShadow_245_268" result="effect2_dropShadow_245_268"/>
<feColorMatrix in="SourceAlpha" type="matrix" values="0 0 0 0 0 0 0 0 0 0 0 0 0 0 0 0 0 0 127 0" result="hardAlpha"/>
<feOffset dx="2" dy="2"/>
<feGaussianBlur stdDeviation="0.5"/>
<feComposite in2="hardAlpha" operator="out"/>
<feColorMatrix type="matrix" values="0 0 0 0 0 0 0 0 0 0 0 0 0 0 0 0 0 0 0.55 0"/>
<feBlend mode="normal" in2="effect2_dropShadow_245_268" result="effect3_dropShadow_245_268"/>
<feBlend mode="normal" in="SourceGraphic" in2="effect3_dropShadow_245_268" result="shape"/>
</filter>
<filter id="filter1_d_245_268" x="4.6792" y="12.3198" width="37.7593" height="25.6802" filterUnits="userSpaceOnUse" color-interpolation-filters="sRGB">
<feFlood flood-opacity="0" result="BackgroundImageFix"/>
<feColorMatrix in="SourceAlpha" type="matrix" values="0 0 0 0 0 0 0 0 0 0 0 0 0 0 0 0 0 0 127 0" result="hardAlpha"/>
<feOffset dy="2"/>
<feGaussianBlur stdDeviation="0.5"/>
<feComposite in2="hardAlpha" operator="out"/>
<feColorMatrix type="matrix" values="0 0 0 0 0 0 0 0 0 0 0 0 0 0 0 0 0 0 0.77 0"/>
<feBlend mode="normal" in2="BackgroundImageFix" result="effect1_dropShadow_245_268"/>
<feBlend mode="normal" in="SourceGraphic" in2="effect1_dropShadow_245_268" result="shape"/>
</filter>
<linearGradient id="paint0_linear_245_268" x1="23.4999" y1="6.07292" x2="23.5001" y2="44.8462" gradientUnits="userSpaceOnUse">
<stop/>
<stop offset="1" stop-color="#666666"/>
</linearGradient>
<linearGradient id="paint1_linear_245_268" x1="44.1951" y1="48.1162" x2="-4.18296" y2="28.6289" gradientUnits="userSpaceOnUse">
<stop stop-color="#070707"/>
<stop offset="0.221344" stop-color="#838383"/>
<stop offset="0.476603" stop-color="#706B6B"/>
<stop offset="0.678427" stop-color="white"/>
<stop offset="1" stop-color="white"/>
</linearGradient>
<linearGradient id="paint2_linear_245_268" x1="7.84587" y1="46.2476" x2="53.4399" y2="28.2751" gradientUnits="userSpaceOnUse">
<stop stop-color="#434242"/>
<stop offset="0.897588" stop-color="#565656"/>
</linearGradient>
</defs>
</svg>
